<svg xmlns="http://www.w3.org/2000/svg" version="1.1" style="font-family:Lato, &#x27;Helvetica Neue&#x27;, Helvetica, Arial, &#x27;Liberation Sans&#x27;, sans-serif;font-size:18px;background-color:white;text-rendering:geometricPrecision;-webkit-font-smoothing:antialiased" width="850" height="675.2" viewBox="0 0 850 675.2"><defs><style>@import url(https://ourworldindata.org/fonts.css)</style></defs><defs><pattern id="noDataPattern" patternUnits="userSpaceOnUse" width="4" height="4" patternTransform="rotate(-45 2 2)"><path d="M -1,2 l 6,0" stroke="#ccc" stroke-width="0.7"></path></pattern></defs><rect class="background-fill" fill="white" width="850" height="675.2"></rect><g class="HeaderView"><g transform="translate(769, 16) scale(1)"><svg className="owidLogo" xmlns="http://www.w3.org/2000/svg" width="65" height="36" viewBox="0 0 65 36"  fill="none"><path fill="#002147" d="M0 0h64.8v36H0z"/><path fill="#CE261E" d="M0 33.3h64.8V36H0z"/><path fill="#fff" d="M13.796 10.575c0 .636-.106 1.226-.318 1.77a4.193 4.193 0 0 1-.894 1.404 4.084 4.084 0 0 1-1.386.93c-.54.22-1.138.33-1.794.33-.656 0-1.256-.11-1.8-.33a4.149 4.149 0 0 1-1.392-.93 4.193 4.193 0 0 1-.894-1.404A4.833 4.833 0 0 1 5 10.575c0-.636.106-1.224.318-1.764a4.18 4.18 0 0 1 .894-1.41 4.076 4.076 0 0 1 1.392-.924 4.684 4.684 0 0 1 1.8-.336c.656 0 1.254.112 1.794.336.54.224 1.002.534 1.386.93.384.392.682.86.894 1.404.212.54.318 1.128.318 1.764Zm-1.656 0c0-.476-.064-.902-.192-1.278a2.671 2.671 0 0 0-.54-.966 2.332 2.332 0 0 0-.864-.606 2.94 2.94 0 0 0-1.14-.21c-.424 0-.806.07-1.146.21-.34.14-.63.342-.87.606a2.742 2.742 0 0 0-.546.966 3.955 3.955 0 0 0-.192 1.278c0 .476.064.904.192 1.284.128.376.31.696.546.96.24.26.53.46.87.6.34.14.722.21 1.146.21.424 0 .804-.07 1.14-.21.34-.14.628-.34.864-.6.236-.264.416-.584.54-.96a4.01 4.01 0 0 0 .192-1.284ZM16.104 8.757v3.912c0 .376.086.668.258.876.176.204.438.306.786.306.256 0 .496-.056.72-.168a2.58 2.58 0 0 0 .636-.474V8.757h1.482v6.156h-.906c-.192 0-.318-.09-.378-.27l-.102-.492a4.65 4.65 0 0 1-.396.354 2.577 2.577 0 0 1-.438.27 2.35 2.35 0 0 1-.498.168 2.345 2.345 0 0 1-.57.066c-.336 0-.634-.056-.894-.168a1.821 1.821 0 0 1-.648-.486 2.157 2.157 0 0 1-.402-.738 3.233 3.233 0 0 1-.132-.948V8.757h1.482ZM21.328 14.913V8.757h.87c.152 0 .258.028.318.084.06.056.1.152.12.288l.09.744c.22-.38.478-.68.774-.9.296-.22.628-.33.996-.33.304 0 .556.07.756.21l-.192 1.11c-.012.072-.038.124-.078.156a.278.278 0 0 1-.162.042 1.01 1.01 0 0 1-.246-.042 1.646 1.646 0 0 0-.414-.042c-.308 0-.572.086-.792.258-.22.168-.406.416-.558.744v3.834h-1.482ZM27.347 6.237h1.356a.57.57 0 0 1 .348.102c.096.064.16.152.192.264l1.476 5.19c.036.128.068.268.096.42.032.148.062.306.09.474a5.968 5.968 0 0 1 .228-.894l1.704-5.19a.575.575 0 0 1 .186-.252.543.543 0 0 1 .348-.114h.474a.57.57 0 0 1 .348.102.497.497 0 0 1 .192.264l1.692 5.19c.088.256.164.54.228.852.028-.156.056-.306.084-.45.032-.144.064-.278.096-.402l1.476-5.19c.028-.1.09-.186.186-.258a.563.563 0 0 1 .348-.108h1.266l-2.694 8.676h-1.458l-1.896-5.928-.078-.246a9.504 9.504 0 0 1-.072-.282c-.024.1-.05.194-.078.282-.024.088-.048.17-.072.246l-1.914 5.928H30.04l-2.694-8.676ZM42.771 8.661c.46 0 .876.074 1.248.222.376.148.696.358.96.63s.468.604.612.996c.144.392.216.83.216 1.314 0 .488-.072.928-.216 1.32a2.85 2.85 0 0 1-.612 1.002 2.653 2.653 0 0 1-.96.636 3.35 3.35 0 0 1-1.248.222c-.46 0-.878-.074-1.254-.222a2.712 2.712 0 0 1-.966-.636 2.922 2.922 0 0 1-.618-1.002 3.807 3.807 0 0 1-.216-1.32c0-.484.072-.922.216-1.314.148-.392.354-.724.618-.996.268-.272.59-.482.966-.63a3.397 3.397 0 0 1 1.254-.222Zm0 5.202c.512 0 .89-.172 1.134-.516.248-.344.372-.848.372-1.512s-.124-1.17-.372-1.518c-.244-.348-.622-.522-1.134-.522-.52 0-.904.176-1.152.528-.248.348-.372.852-.372 1.512s.124 1.164.372 1.512c.248.344.632.516 1.152.516ZM46.723 14.913V8.757h.87c.152 0 .258.028.318.084.06.056.1.152.12.288l.09.744c.22-.38.478-.68.774-.9.296-.22.628-.33.996-.33.304 0 .556.07.756.21l-.192 1.11c-.012.072-.038.124-.078.156a.278.278 0 0 1-.162.042 1.01 1.01 0 0 1-.246-.042 1.646 1.646 0 0 0-.414-.042c-.308 0-.572.086-.792.258-.22.168-.406.416-.558.744v3.834h-1.482ZM52.96 5.997v8.916h-1.482V5.997h1.482ZM58.732 14.913c-.192 0-.318-.09-.378-.27l-.12-.594a3.68 3.68 0 0 1-.402.39c-.14.116-.292.216-.456.3-.16.084-.334.148-.522.192a2.372 2.372 0 0 1-.6.072c-.336 0-.644-.07-.924-.21a2.098 2.098 0 0 1-.726-.606 3.033 3.033 0 0 1-.468-.99 5.072 5.072 0 0 1-.162-1.344c0-.456.062-.88.186-1.272s.302-.732.534-1.02c.232-.288.51-.512.834-.672a2.384 2.384 0 0 1 1.092-.246 2.103 2.103 0 0 1 1.536.606V5.997h1.482v8.916h-.906Zm-1.974-1.086c.308 0 .57-.064.786-.192.216-.128.42-.31.612-.546v-2.76a1.452 1.452 0 0 0-.552-.432 1.597 1.597 0 0 0-.636-.126c-.224 0-.428.042-.612.126a1.21 1.21 0 0 0-.462.384c-.124.168-.22.384-.288.648-.068.26-.102.568-.102.924 0 .36.028.666.084.918.06.248.144.452.252.612.108.156.24.27.396.342.156.068.33.102.522.102ZM16.331 20.757v6.156H14.85v-6.156h1.481Zm.223-1.794a.844.844 0 0 1-.078.36.963.963 0 0 1-.21.294.995.995 0 0 1-.3.204.963.963 0 0 1-.372.072.948.948 0 0 1-.367-.072 1.018 1.018 0 0 1-.498-.498.963.963 0 0 1 0-.732.995.995 0 0 1 .205-.3.929.929 0 0 1 .293-.198.899.899 0 0 1 .738 0 .912.912 0 0 1 .3.198.943.943 0 0 1 .288.672ZM17.771 26.913v-6.156h.906c.192 0 .318.09.378.27l.102.486a2.934 2.934 0 0 1 .828-.618c.156-.076.322-.134.498-.174.176-.04.368-.06.576-.06.336 0 .634.058.894.174.26.112.476.272.648.48.176.204.308.45.396.738.092.284.138.598.138.942v3.918h-1.482v-3.918c0-.376-.088-.666-.264-.87-.172-.208-.432-.312-.78-.312-.256 0-.496.058-.72.174a2.58 2.58 0 0 0-.636.474v4.452h-1.482ZM34.22 22.575c0 .636-.106 1.22-.318 1.752-.212.532-.51.99-.894 1.374a4 4 0 0 1-1.386.894 4.87 4.87 0 0 1-1.794.318h-3.312v-8.676h3.312a4.79 4.79 0 0 1 1.794.324 4 4 0 0 1 1.386.894c.384.38.682.836.894 1.368.212.532.318 1.116.318 1.752Zm-1.65 0c0-.476-.064-.902-.192-1.278a2.68 2.68 0 0 0-.546-.96 2.332 2.332 0 0 0-.864-.606 2.94 2.94 0 0 0-1.14-.21h-1.686v6.108h1.686c.424 0 .804-.07 1.14-.21.34-.14.628-.34.864-.6a2.75 2.75 0 0 0 .546-.96 4.01 4.01 0 0 0 .192-1.284ZM39.98 26.913h-.665c-.14 0-.25-.02-.33-.06-.08-.044-.14-.13-.18-.258l-.132-.438c-.156.14-.31.264-.462.372a2.804 2.804 0 0 1-.462.264c-.16.072-.33.126-.51.162-.18.036-.38.054-.6.054-.26 0-.5-.034-.72-.102a1.618 1.618 0 0 1-.57-.318 1.448 1.448 0 0 1-.366-.522 1.852 1.852 0 0 1-.132-.726c0-.232.06-.46.18-.684.124-.228.328-.432.612-.612.284-.184.662-.336 1.134-.456.472-.12 1.058-.188 1.758-.204v-.36c0-.412-.088-.716-.264-.912-.172-.2-.424-.3-.756-.3a1.837 1.837 0 0 0-1.02.276c-.116.068-.224.13-.324.186a.664.664 0 0 1-.33.084.429.429 0 0 1-.258-.078.614.614 0 0 1-.174-.192l-.27-.474c.708-.648 1.562-.972 2.562-.972.36 0 .68.06.96.18.284.116.524.28.72.492.196.208.344.458.444.75.104.292.156.612.156.96v3.888Zm-2.88-.924c.153 0 .293-.014.42-.042.129-.028.249-.07.36-.126.117-.056.227-.124.33-.204.109-.084.217-.182.325-.294v-1.038c-.432.02-.794.058-1.086.114-.288.052-.52.12-.696.204a.923.923 0 0 0-.378.294.664.664 0 0 0-.108.366c0 .26.076.446.228.558.156.112.358.168.606.168ZM43.22 27.01c-.532 0-.942-.15-1.23-.45-.288-.305-.432-.723-.432-1.255v-3.438h-.624a.31.31 0 0 1-.21-.078c-.056-.052-.084-.13-.084-.234v-.588l.99-.162.312-1.68a.302.302 0 0 1 .108-.186.365.365 0 0 1 .222-.066h.768v1.938h1.62v1.056h-1.62v3.336c0 .192.048.342.144.45a.488.488 0 0 0 .384.162c.092 0 .168-.01.228-.03.064-.024.118-.048.162-.072.048-.024.09-.046.126-.066a.194.194 0 0 1 .108-.036.16.16 0 0 1 .108.036c.028.02.058.052.09.096l.444.72c-.216.18-.464.316-.744.408a2.77 2.77 0 0 1-.87.138ZM50.423 26.913h-.666c-.14 0-.25-.02-.33-.06-.08-.044-.14-.13-.18-.258l-.132-.438c-.156.14-.31.264-.462.372a2.804 2.804 0 0 1-.462.264c-.16.072-.33.126-.51.162-.18.036-.38.054-.6.054-.26 0-.5-.034-.72-.102a1.618 1.618 0 0 1-.57-.318 1.448 1.448 0 0 1-.366-.522 1.852 1.852 0 0 1-.132-.726c0-.232.06-.46.18-.684.124-.228.328-.432.612-.612.284-.184.662-.336 1.134-.456.472-.12 1.058-.188 1.758-.204v-.36c0-.412-.088-.716-.264-.912-.172-.2-.424-.3-.756-.3a1.837 1.837 0 0 0-1.02.276c-.116.068-.224.13-.324.186a.664.664 0 0 1-.33.084.429.429 0 0 1-.258-.078.614.614 0 0 1-.174-.192l-.27-.474c.708-.648 1.562-.972 2.562-.972.36 0 .68.06.96.18.284.116.524.28.72.492.196.208.344.458.444.75.104.292.156.612.156.96v3.888Zm-2.88-.924c.152 0 .292-.014.42-.042.128-.028.248-.07.36-.126.116-.056.226-.124.33-.204.108-.084.216-.182.324-.294v-1.038c-.432.02-.794.058-1.086.114-.288.052-.52.12-.696.204a.923.923 0 0 0-.378.294.664.664 0 0 0-.108.366c0 .26.076.446.228.558.156.112.358.168.606.168Z"/></svg></g><a href="https://ourworldindata.org/grapher/deaths-due-to-unsafe-sanitation?tab=chart&amp;time=2002..latest&amp;country=AFG~DNK~AUS~GBR~CHE~SAU~DEU~BLR~CHN~UKR~RUS~GRC~TUR~KOR" style="font-family:&#x27;Playfair Display&#x27;, Georgia, &#x27;Times New Roman&#x27;, &#x27;Liberation Serif&#x27;, serif" target="_blank" rel="noopener"><text font-size="24.00" font-weight="500" x="16.0" y="39.3" fill="#5b5b5b"><tspan x="16" y="39.28">Deaths attributed to unsafe sanitation, 2002 to 2019</tspan></text></a><text x="16.0" y="63.0" style="font-size:14px;line-height:1.28571" fill="#5b5b5b"><tspan x="16" y="63.0">Estimated annual number of deaths attributed to <tspan>unsafe sanitation<tspan style="font-feature-settings:&quot;sups&quot;">ยน</tspan></tspan>. Here the attributable burden is the number of</tspan><tspan x="16" y="81.0">deaths that would no longer occur if the entire population had access to high-quality piped water.</tspan></text></g><g class="LineChart"><defs><clipPath id="boundsClip-8"><rect x="60.896" y="90.79988" width="838" height="471.60011999999995"></rect></clipPath></defs><rect x="16" y="100.79988" width="818" height="451.60011999999995" fill="none"></rect><g class="DualAxisView"><g class="HorizontalAxis"><line x1="70.9" y1="529.1999999999999" x2="70.9" y2="534.1999999999999" stroke="#999"></line><line x1="702.6" y1="529.1999999999999" x2="702.6" y2="534.1999999999999" stroke="#999"></line><line x1="145.2" y1="529.1999999999999" x2="145.2" y2="534.1999999999999" stroke="#999"></line><line x1="219.5" y1="529.1999999999999" x2="219.5" y2="534.1999999999999" stroke="#999"></line><line x1="293.9" y1="529.1999999999999" x2="293.9" y2="534.1999999999999" stroke="#999"></line><line x1="368.2" y1="529.1999999999999" x2="368.2" y2="534.1999999999999" stroke="#999"></line><line x1="442.5" y1="529.1999999999999" x2="442.5" y2="534.1999999999999" stroke="#999"></line><line x1="516.8" y1="529.1999999999999" x2="516.8" y2="534.1999999999999" stroke="#999"></line><line x1="591.1" y1="529.1999999999999" x2="591.1" y2="534.1999999999999" stroke="#999"></line><text x="70.896" y="550.4" fill="#666" text-anchor="start" font-size="16.2">2002</text><text x="702.61" y="550.4" fill="#666" text-anchor="end" font-size="16.2">2019</text><text x="145.2" y="550.4" fill="#666" text-anchor="middle" font-size="16.2">2004</text><text x="219.5" y="550.4" fill="#666" text-anchor="middle" font-size="16.2">2006</text><text x="293.9" y="550.4" fill="#666" text-anchor="middle" font-size="16.2">2008</text><text x="368.2" y="550.4" fill="#666" text-anchor="middle" font-size="16.2">2010</text><text x="442.5" y="550.4" fill="#666" text-anchor="middle" font-size="16.2">2012</text><text x="516.8" y="550.4" fill="#666" text-anchor="middle" font-size="16.2">2014</text><text x="591.1" y="550.4" fill="#666" text-anchor="middle" font-size="16.2">2016</text></g><g class="VerticalAxis"><text x="65.90" y="529.2" dy=".32em" text-anchor="end" fill="#666" font-size="16.2">0</text><text x="65.90" y="469.1" dy=".32em" text-anchor="end" fill="#666" font-size="16.2">2,000</text><text x="65.90" y="409.1" dy=".32em" text-anchor="end" fill="#666" font-size="16.2">4,000</text><text x="65.90" y="349" dy=".32em" text-anchor="end" fill="#666" font-size="16.2">6,000</text><text x="65.90" y="288.9" dy=".32em" text-anchor="end" fill="#666" font-size="16.2">8,000</text><text x="65.90" y="228.9" dy=".32em" text-anchor="end" fill="#666" font-size="16.2">10,000</text><text x="65.90" y="168.8" dy=".32em" text-anchor="end" fill="#666" font-size="16.2">12,000</text><text x="65.90" y="108.7" dy=".32em" text-anchor="end" fill="#666" font-size="16.2">14,000</text></g><g class="AxisGridLines horizontalLines"><line x1="70.90" y1="529.2" x2="702.61" y2="529.2" stroke="#999"></line><line x1="70.90" y1="469.1" x2="702.61" y2="469.1" stroke="#ddd" stroke-dasharray="3,2"></line><line x1="70.90" y1="409.1" x2="702.61" y2="409.1" stroke="#ddd" stroke-dasharray="3,2"></line><line x1="70.90" y1="349" x2="702.61" y2="349" stroke="#ddd" stroke-dasharray="3,2"></line><line x1="70.90" y1="288.9" x2="702.61" y2="288.9" stroke="#ddd" stroke-dasharray="3,2"></line><line x1="70.90" y1="228.9" x2="702.61" y2="228.9" stroke="#ddd" stroke-dasharray="3,2"></line><line x1="70.90" y1="168.8" x2="702.61" y2="168.8" stroke="#ddd" stroke-dasharray="3,2"></line><line x1="70.90" y1="108.7" x2="702.61" y2="108.7" stroke="#ddd" stroke-dasharray="3,2"></line></g></g><g clip-path="url(#boundsClip-8)"><g class="LineLabels" style="cursor:default"><g class="legendMark"><g class="indicator"><path d="M706.61,451.3 H708.41 V320.9499999999999 H733.61" stroke="#999" stroke-width="0.5" fill="none"></path></g><rect x="702.61" y="314.1999999999999" width="106.685" height="13.5" fill="#fff" opacity="0"></rect><text font-size="13.50" font-weight="400" x="737.6" y="325.9" fill="#883039"><tspan x="737.61" y="325.9449999999999">Afghanistan</tspan></text></g><g class="legendMark"><g class="indicator"><path d="M706.61,472.1 H710.2099999999999 V336.4499999999999 H733.61" stroke="#999" stroke-width="0.5" fill="none"></path></g><rect x="702.61" y="329.6999999999999" width="70.37" height="13.5" fill="#fff" opacity="0"></rect><text font-size="13.50" font-weight="400" x="737.6" y="341.4" fill="#970046"><tspan x="737.61" y="341.4449999999999">China</tspan></text></g><g class="legendMark"><g class="indicator"><path d="M706.61,525.6 H712.01 V351.9499999999999 H733.61" stroke="#999" stroke-width="0.5" fill="none"></path></g><rect x="702.61" y="345.1999999999999" width="76.31" height="13.5" fill="#fff" opacity="0"></rect><text font-size="13.50" font-weight="400" x="737.6" y="356.9" fill="#b13507"><tspan x="737.61" y="356.9449999999999">Russia</tspan></text></g><g class="legendMark"><g class="indicator"><path d="M706.61,525.9 H713.81 V367.4499999999999 H733.61" stroke="#999" stroke-width="0.5" fill="none"></path></g><rect x="702.61" y="360.6999999999999" width="76.31" height="13.5" fill="#fff" opacity="0"></rect><text font-size="13.50" font-weight="400" x="737.6" y="372.4" fill="#00875e"><tspan x="737.61" y="372.4449999999999">Turkey</tspan></text></g><g class="legendMark"><g class="indicator"><path d="M706.61,527.7 H715.61 V382.9499999999999 H733.61" stroke="#999" stroke-width="0.5" fill="none"></path></g><rect x="702.61" y="376.1999999999999" width="90.62" height="13.5" fill="#fff" opacity="0"></rect><text font-size="13.50" font-weight="400" x="737.6" y="387.9" fill="#008291"><tspan x="737.61" y="387.9449999999999">Germany</tspan></text></g><g class="legendMark"><g class="indicator"><path d="M706.61,528.3 H717.41 V398.4499999999999 H733.61" stroke="#999" stroke-width="0.5" fill="none"></path></g><rect x="702.61" y="391.6999999999999" width="81.575" height="13.5" fill="#fff" opacity="0"></rect><text font-size="13.50" font-weight="400" x="737.6" y="403.4" fill="#00847e"><tspan x="737.61" y="403.4449999999999">Ukraine</tspan></text></g><g class="legendMark"><g class="indicator"><path d="M706.61,528.5 H719.2099999999999 V413.9499999999999 H733.61" stroke="#999" stroke-width="0.5" fill="none"></path></g><rect x="702.61" y="407.1999999999999" width="110.465" height="13.5" fill="#fff" opacity="0"></rect><text font-size="13.50" font-weight="400" x="737.6" y="418.9" fill="#b16214"><tspan x="737.61" y="418.9449999999999">South Korea</tspan></text></g><g class="legendMark"><g class="indicator"><path d="M706.61,528.6 H721.01 V429.4499999999999 H733.61" stroke="#999" stroke-width="0.5" fill="none"></path></g><rect x="702.61" y="422.6999999999999" width="112.625" height="13.5" fill="#fff" opacity="0"></rect><text font-size="13.50" font-weight="400" x="737.6" y="434.4" fill="#a2559c"><tspan x="737.61" y="434.4449999999999">Saudi Arabia</tspan></text></g><g class="legendMark"><g class="indicator"><path d="M706.61,528.9 H722.81 V444.9499999999999 H733.61" stroke="#999" stroke-width="0.5" fill="none"></path></g><rect x="702.61" y="438.1999999999999" width="87.65" height="13.5" fill="#fff" opacity="0"></rect><text font-size="13.50" font-weight="400" x="737.6" y="449.9" fill="#00295b"><tspan x="737.61" y="449.9449999999999">Australia</tspan></text></g><g class="legendMark"><g class="indicator"><path d="M706.61,529 H724.61 V460.4499999999999 H733.61" stroke="#999" stroke-width="0.5" fill="none"></path></g><rect x="702.61" y="453.6999999999999" width="131.39" height="13.5" fill="#fff" opacity="0"></rect><text font-size="13.50" font-weight="400" x="737.6" y="465.4" fill="#9a5129"><tspan x="737.61" y="465.4449999999999">United Kingdom</tspan></text></g><g class="legendMark"><g class="indicator"><path d="M706.61,529.1 H726.41 V475.9499999999999 H733.61" stroke="#999" stroke-width="0.5" fill="none"></path></g><rect x="702.61" y="469.1999999999999" width="80.9" height="13.5" fill="#fff" opacity="0"></rect><text font-size="13.50" font-weight="400" x="737.6" y="480.9" fill="#578145"><tspan x="737.61" y="480.9449999999999">Belarus</tspan></text></g><g class="legendMark"><g class="indicator"><path d="M706.61,529.1 H728.2099999999999 V491.4499999999999 H733.61" stroke="#999" stroke-width="0.5" fill="none"></path></g><rect x="702.61" y="484.6999999999999" width="89.81" height="13.5" fill="#fff" opacity="0"></rect><text font-size="13.50" font-weight="400" x="737.6" y="496.4" fill="#996d39"><tspan x="737.61" y="496.4449999999999">Denmark</tspan></text></g><g class="legendMark"><g class="indicator"><path d="M706.61,529.1 H730.01 V506.9499999999999 H733.61" stroke="#999" stroke-width="0.5" fill="none"></path></g><rect x="702.61" y="500.1999999999999" width="104.93" height="13.5" fill="#fff" opacity="0"></rect><text font-size="13.50" font-weight="400" x="737.6" y="511.9" fill="#c4523e"><tspan x="737.61" y="511.9449999999999">Switzerland</tspan></text></g><g class="legendMark"><g class="indicator"><path d="M706.61,529.2 H731.81 V522.4499999999998 H733.61" stroke="#999" stroke-width="0.5" fill="none"></path></g><rect x="702.61" y="515.6999999999998" width="79.415" height="13.5" fill="#fff" opacity="0"></rect><text font-size="13.50" font-weight="400" x="737.6" y="527.4" fill="#4c6a9c"><tspan x="737.61" y="527.4449999999998">Greece</tspan></text></g></g><g class="Lines"><rect x="71" y="107" width="632" height="422" fill="rgba(255,255,255,0)" opacity="0"></rect><g><path stroke-linecap="round" stroke-linejoin="round" stroke="#ddd" d="M70.9 528.9L108.1 528.8L145.2 528.8L182.4 528.7L219.5 528.7L256.7 528.6L293.9 528.7L331 528.8L368.2 528.8L405.3 528.9L442.5 528.9L479.7 528.9L516.8 528.9L554 529L591.1 529L628.3 529L665.5 529L702.6 529" fill="none" stroke-width="1"></path></g><g><path stroke-linecap="round" stroke-linejoin="round" stroke="#ddd" d="M70.9 528L108.1 528.2L145.2 528.2L182.4 528.3L219.5 528.3L256.7 528.3L293.9 528.3L331 528.3L368.2 528.3L405.3 528.3L442.5 528.3L479.7 528.2L516.8 528.3L554 528.1L591.1 528.1L628.3 528.2L665.5 528.2L702.6 528.3" fill="none" stroke-width="1"></path></g><g><path stroke-linecap="round" stroke-linejoin="round" stroke="#ddd" d="M70.9 505L108.1 509.9L145.2 513.1L182.4 515.6L219.5 517.1L256.7 518.5L293.9 519.5L331 521.1L368.2 522.1L405.3 522.9L442.5 523.5L479.7 523.9L516.8 524.4L554 524.8L591.1 525.1L628.3 525.4L665.5 525.7L702.6 525.9" fill="none" stroke-width="1"></path></g><g><path stroke-linecap="round" stroke-linejoin="round" stroke="#ddd" d="M70.9 529.2L108.1 529.2L145.2 529.2L182.4 529.2L219.5 529.2L256.7 529.2L293.9 529.2L331 529.1L368.2 529.1L405.3 529.1L442.5 529.1L479.7 529.1L516.8 529.1L554 529.1L591.1 529.1L628.3 529.1L665.5 529.1L702.6 529.1" fill="none" stroke-width="1"></path></g><g><path stroke-linecap="round" stroke-linejoin="round" stroke="#ddd" d="M70.9 524.2L108.1 524.9L145.2 525.6L182.4 526.2L219.5 526.7L256.7 527L293.9 527.3L331 527.6L368.2 527.8L405.3 528L442.5 528.1L479.7 528.2L516.8 528.3L554 528.4L591.1 528.4L628.3 528.5L665.5 528.6L702.6 528.6" fill="none" stroke-width="1"></path></g><g><path stroke-linecap="round" stroke-linejoin="round" stroke="#ddd" d="M70.9 516.4L108.1 517.6L145.2 519.4L182.4 520.5L219.5 521.9L256.7 522.7L293.9 523.3L331 523.8L368.2 524.1L405.3 524.2L442.5 524L479.7 524.3L516.8 524.4L554 524.7L591.1 525L628.3 525.4L665.5 525.5L702.6 525.6" fill="none" stroke-width="1"></path></g><g><path stroke-linecap="round" stroke-linejoin="round" stroke="#ddd" d="M70.9 528.5L108.1 528.6L145.2 528.6L182.4 528.6L219.5 528.6L256.7 528.6L293.9 528.6L331 528.6L368.2 528.6L405.3 528.5L442.5 528.5L479.7 528.5L516.8 528.5L554 528.5L591.1 528.5L628.3 528.5L665.5 528.5L702.6 528.5" fill="none" stroke-width="1"></path></g><g><path stroke-linecap="round" stroke-linejoin="round" stroke="#ddd" d="M70.9 529.2L108.1 529.2L145.2 529.2L182.4 529.2L219.5 529.2L256.7 529.2L293.9 529.2L331 529.2L368.2 529.2L405.3 529.2L442.5 529.2L479.7 529.2L516.8 529.2L554 529.2L591.1 529.1L628.3 529.2L665.5 529.2L702.6 529.2" fill="none" stroke-width="1"></path></g><g><path stroke-linecap="round" stroke-linejoin="round" stroke="#ddd" d="M70.9 528.7L108.1 528.6L145.2 528.4L182.4 528.3L219.5 528.1L256.7 528L293.9 527.8L331 527.7L368.2 527.6L405.3 527.6L442.5 527.5L479.7 527.5L516.8 527.5L554 527.4L591.1 527.4L628.3 527.6L665.5 527.6L702.6 527.7" fill="none" stroke-width="1"></path></g><g><path stroke-linecap="round" stroke-linejoin="round" stroke="#ddd" d="M70.9 529.1L108.1 529.1L145.2 529.1L182.4 529.1L219.5 529.1L256.7 529.1L293.9 529.1L331 529L368.2 529L405.3 529L442.5 529L479.7 529L516.8 529L554 529L591.1 529L628.3 529.1L665.5 529.1L702.6 529.1" fill="none" stroke-width="1"></path></g><g><path stroke-linecap="round" stroke-linejoin="round" stroke="#ddd" d="M70.9 106.8L108.1 162.5L145.2 214.8L182.4 266.5L219.5 314.4L256.7 352.8L293.9 380.5L331 401.2L368.2 419.8L405.3 432.3L442.5 439.9L479.7 445.9L516.8 452.4L554 454L591.1 452.1L628.3 458.3L665.5 467.4L702.6 472.1" fill="none" stroke-width="1"></path></g><g><path stroke-linecap="round" stroke-linejoin="round" stroke="#ddd" d="M70.9 528.9L108.1 529L145.2 529L182.4 529L219.5 529.1L256.7 529.1L293.9 529.1L331 529.1L368.2 529.1L405.3 529.1L442.5 529.1L479.7 529.1L516.8 529.1L554 529.1L591.1 529.1L628.3 529.1L665.5 529.1L702.6 529.1" fill="none" stroke-width="1"></path></g><g><path stroke-linecap="round" stroke-linejoin="round" stroke="#ddd" d="M70.9 529L108.1 529L145.2 529L182.4 529L219.5 529L256.7 529L293.9 529L331 529L368.2 528.9L405.3 528.9L442.5 528.9L479.7 528.9L516.8 528.9L554 528.9L591.1 528.9L628.3 528.9L665.5 528.9L702.6 528.9" fill="none" stroke-width="1"></path></g><g><path stroke-linecap="round" stroke-linejoin="round" stroke="#ddd" d="M70.9 304L108.1 285.7L145.2 288.1L182.4 303L219.5 326.8L256.7 347.5L293.9 368.5L331 387.1L368.2 397L405.3 407L442.5 415.6L479.7 416.9L516.8 422.2L554 427.7L591.1 430.7L628.3 432.2L665.5 446L702.6 451.3" fill="none" stroke-width="1"></path></g><g><path fill="none" stroke-linecap="butt" stroke-linejoin="round" stroke="#fff" stroke-width="2.5" d="M70.9 528.9L108.1 528.8L145.2 528.8L182.4 528.7L219.5 528.7L256.7 528.6L293.9 528.7L331 528.8L368.2 528.8L405.3 528.9L442.5 528.9L479.7 528.9L516.8 528.9L554 529L591.1 529L628.3 529L665.5 529L702.6 529"></path><polyline points="70.90,528.90 108.10,528.80 145.20,528.80 182.40,528.70 219.50,528.70 256.70,528.60 293.90,528.70 331.00,528.80 368.20,528.80 405.30,528.90 442.50,528.90 479.70,528.90 516.80,528.90 554.00,529.00 591.10,529.00 628.30,529.00 665.50,529.00 702.60,529.00" stroke-linejoin="round" stroke-width="1.5" stroke="#9A5129" fill="none" stroke-linecap="butt"></polyline><g><circle cx="70.9" cy="528.9" r="1.8" fill="#9A5129"></circle><circle cx="108.1" cy="528.8" r="1.8" fill="#9A5129"></circle><circle cx="145.2" cy="528.8" r="1.8" fill="#9A5129"></circle><circle cx="182.4" cy="528.7" r="1.8" fill="#9A5129"></circle><circle cx="219.5" cy="528.7" r="1.8" fill="#9A5129"></circle><circle cx="256.7" cy="528.6" r="1.8" fill="#9A5129"></circle><circle cx="293.9" cy="528.7" r="1.8" fill="#9A5129"></circle><circle cx="331" cy="528.8" r="1.8" fill="#9A5129"></circle><circle cx="368.2" cy="528.8" r="1.8" fill="#9A5129"></circle><circle cx="405.3" cy="528.9" r="1.8" fill="#9A5129"></circle><circle cx="442.5" cy="528.9" r="1.8" fill="#9A5129"></circle><circle cx="479.7" cy="528.9" r="1.8" fill="#9A5129"></circle><circle cx="516.8" cy="528.9" r="1.8" fill="#9A5129"></circle><circle cx="554" cy="529" r="1.8" fill="#9A5129"></circle><circle cx="591.1" cy="529" r="1.8" fill="#9A5129"></circle><circle cx="628.3" cy="529" r="1.8" fill="#9A5129"></circle><circle cx="665.5" cy="529" r="1.8" fill="#9A5129"></circle><circle cx="702.6" cy="529" r="1.8" fill="#9A5129"></circle></g></g><g><path fill="none" stroke-linecap="butt" stroke-linejoin="round" stroke="#fff" stroke-width="2.5" d="M70.9 528L108.1 528.2L145.2 528.2L182.4 528.3L219.5 528.3L256.7 528.3L293.9 528.3L331 528.3L368.2 528.3L405.3 528.3L442.5 528.3L479.7 528.2L516.8 528.3L554 528.1L591.1 528.1L628.3 528.2L665.5 528.2L702.6 528.3"></path><polyline points="70.90,528.00 108.10,528.20 145.20,528.20 182.40,528.30 219.50,528.30 256.70,528.30 293.90,528.30 331.00,528.30 368.20,528.30 405.30,528.30 442.50,528.30 479.70,528.20 516.80,528.30 554.00,528.10 591.10,528.10 628.30,528.20 665.50,528.20 702.60,528.30" stroke-linejoin="round" stroke-width="1.5" stroke="#00847E" fill="none" stroke-linecap="butt"></polyline><g><circle cx="70.9" cy="528" r="1.8" fill="#00847E"></circle><circle cx="108.1" cy="528.2" r="1.8" fill="#00847E"></circle><circle cx="145.2" cy="528.2" r="1.8" fill="#00847E"></circle><circle cx="182.4" cy="528.3" r="1.8" fill="#00847E"></circle><circle cx="219.5" cy="528.3" r="1.8" fill="#00847E"></circle><circle cx="256.7" cy="528.3" r="1.8" fill="#00847E"></circle><circle cx="293.9" cy="528.3" r="1.8" fill="#00847E"></circle><circle cx="331" cy="528.3" r="1.8" fill="#00847E"></circle><circle cx="368.2" cy="528.3" r="1.8" fill="#00847E"></circle><circle cx="405.3" cy="528.3" r="1.8" fill="#00847E"></circle><circle cx="442.5" cy="528.3" r="1.8" fill="#00847E"></circle><circle cx="479.7" cy="528.2" r="1.8" fill="#00847E"></circle><circle cx="516.8" cy="528.3" r="1.8" fill="#00847E"></circle><circle cx="554" cy="528.1" r="1.8" fill="#00847E"></circle><circle cx="591.1" cy="528.1" r="1.8" fill="#00847E"></circle><circle cx="628.3" cy="528.2" r="1.8" fill="#00847E"></circle><circle cx="665.5" cy="528.2" r="1.8" fill="#00847E"></circle><circle cx="702.6" cy="528.3" r="1.8" fill="#00847E"></circle></g></g><g><path fill="none" stroke-linecap="butt" stroke-linejoin="round" stroke="#fff" stroke-width="2.5" d="M70.9 505L108.1 509.9L145.2 513.1L182.4 515.6L219.5 517.1L256.7 518.5L293.9 519.5L331 521.1L368.2 522.1L405.3 522.9L442.5 523.5L479.7 523.9L516.8 524.4L554 524.8L591.1 525.1L628.3 525.4L665.5 525.7L702.6 525.9"></path><polyline points="70.90,505.00 108.10,509.90 145.20,513.10 182.40,515.60 219.50,517.10 256.70,518.50 293.90,519.50 331.00,521.10 368.20,522.10 405.30,522.90 442.50,523.50 479.70,523.90 516.80,524.40 554.00,524.80 591.10,525.10 628.30,525.40 665.50,525.70 702.60,525.90" stroke-linejoin="round" stroke-width="1.5" stroke="#00875E" fill="none" stroke-linecap="butt"></polyline><g><circle cx="70.9" cy="505" r="1.8" fill="#00875E"></circle><circle cx="108.1" cy="509.9" r="1.8" fill="#00875E"></circle><circle cx="145.2" cy="513.1" r="1.8" fill="#00875E"></circle><circle cx="182.4" cy="515.6" r="1.8" fill="#00875E"></circle><circle cx="219.5" cy="517.1" r="1.8" fill="#00875E"></circle><circle cx="256.7" cy="518.5" r="1.8" fill="#00875E"></circle><circle cx="293.9" cy="519.5" r="1.8" fill="#00875E"></circle><circle cx="331" cy="521.1" r="1.8" fill="#00875E"></circle><circle cx="368.2" cy="522.1" r="1.8" fill="#00875E"></circle><circle cx="405.3" cy="522.9" r="1.8" fill="#00875E"></circle><circle cx="442.5" cy="523.5" r="1.8" fill="#00875E"></circle><circle cx="479.7" cy="523.9" r="1.8" fill="#00875E"></circle><circle cx="516.8" cy="524.4" r="1.8" fill="#00875E"></circle><circle cx="554" cy="524.8" r="1.8" fill="#00875E"></circle><circle cx="591.1" cy="525.1" r="1.8" fill="#00875E"></circle><circle cx="628.3" cy="525.4" r="1.8" fill="#00875E"></circle><circle cx="665.5" cy="525.7" r="1.8" fill="#00875E"></circle><circle cx="702.6" cy="525.9" r="1.8" fill="#00875E"></circle></g></g><g><path fill="none" stroke-linecap="butt" stroke-linejoin="round" stroke="#fff" stroke-width="2.5" d="M70.9 529.2L108.1 529.2L145.2 529.2L182.4 529.2L219.5 529.2L256.7 529.2L293.9 529.2L331 529.1L368.2 529.1L405.3 529.1L442.5 529.1L479.7 529.1L516.8 529.1L554 529.1L591.1 529.1L628.3 529.1L665.5 529.1L702.6 529.1"></path><polyline points="70.90,529.20 108.10,529.20 145.20,529.20 182.40,529.20 219.50,529.20 256.70,529.20 293.90,529.20 331.00,529.10 368.20,529.10 405.30,529.10 442.50,529.10 479.70,529.10 516.80,529.10 554.00,529.10 591.10,529.10 628.30,529.10 665.50,529.10 702.60,529.10" stroke-linejoin="round" stroke-width="1.5" stroke="#C4523E" fill="none" stroke-linecap="butt"></polyline><g><circle cx="70.9" cy="529.2" r="1.8" fill="#C4523E"></circle><circle cx="108.1" cy="529.2" r="1.8" fill="#C4523E"></circle><circle cx="145.2" cy="529.2" r="1.8" fill="#C4523E"></circle><circle cx="182.4" cy="529.2" r="1.8" fill="#C4523E"></circle><circle cx="219.5" cy="529.2" r="1.8" fill="#C4523E"></circle><circle cx="256.7" cy="529.2" r="1.8" fill="#C4523E"></circle><circle cx="293.9" cy="529.2" r="1.8" fill="#C4523E"></circle><circle cx="331" cy="529.1" r="1.8" fill="#C4523E"></circle><circle cx="368.2" cy="529.1" r="1.8" fill="#C4523E"></circle><circle cx="405.3" cy="529.1" r="1.8" fill="#C4523E"></circle><circle cx="442.5" cy="529.1" r="1.8" fill="#C4523E"></circle><circle cx="479.7" cy="529.1" r="1.8" fill="#C4523E"></circle><circle cx="516.8" cy="529.1" r="1.8" fill="#C4523E"></circle><circle cx="554" cy="529.1" r="1.8" fill="#C4523E"></circle><circle cx="591.1" cy="529.1" r="1.8" fill="#C4523E"></circle><circle cx="628.3" cy="529.1" r="1.8" fill="#C4523E"></circle><circle cx="665.5" cy="529.1" r="1.8" fill="#C4523E"></circle><circle cx="702.6" cy="529.1" r="1.8" fill="#C4523E"></circle></g></g><g><path fill="none" stroke-linecap="butt" stroke-linejoin="round" stroke="#fff" stroke-width="2.5" d="M70.9 524.2L108.1 524.9L145.2 525.6L182.4 526.2L219.5 526.7L256.7 527L293.9 527.3L331 527.6L368.2 527.8L405.3 528L442.5 528.1L479.7 528.2L516.8 528.3L554 528.4L591.1 528.4L628.3 528.5L665.5 528.6L702.6 528.6"></path><polyline points="70.90,524.20 108.10,524.90 145.20,525.60 182.40,526.20 219.50,526.70 256.70,527.00 293.90,527.30 331.00,527.60 368.20,527.80 405.30,528.00 442.50,528.10 479.70,528.20 516.80,528.30 554.00,528.40 591.10,528.40 628.30,528.50 665.50,528.60 702.60,528.60" stroke-linejoin="round" stroke-width="1.5" stroke="#A2559C" fill="none" stroke-linecap="butt"></polyline><g><circle cx="70.9" cy="524.2" r="1.8" fill="#A2559C"></circle><circle cx="108.1" cy="524.9" r="1.8" fill="#A2559C"></circle><circle cx="145.2" cy="525.6" r="1.8" fill="#A2559C"></circle><circle cx="182.4" cy="526.2" r="1.8" fill="#A2559C"></circle><circle cx="219.5" cy="526.7" r="1.8" fill="#A2559C"></circle><circle cx="256.7" cy="527" r="1.8" fill="#A2559C"></circle><circle cx="293.9" cy="527.3" r="1.8" fill="#A2559C"></circle><circle cx="331" cy="527.6" r="1.8" fill="#A2559C"></circle><circle cx="368.2" cy="527.8" r="1.8" fill="#A2559C"></circle><circle cx="405.3" cy="528" r="1.8" fill="#A2559C"></circle><circle cx="442.5" cy="528.1" r="1.8" fill="#A2559C"></circle><circle cx="479.7" cy="528.2" r="1.8" fill="#A2559C"></circle><circle cx="516.8" cy="528.3" r="1.8" fill="#A2559C"></circle><circle cx="554" cy="528.4" r="1.8" fill="#A2559C"></circle><circle cx="591.1" cy="528.4" r="1.8" fill="#A2559C"></circle><circle cx="628.3" cy="528.5" r="1.8" fill="#A2559C"></circle><circle cx="665.5" cy="528.6" r="1.8" fill="#A2559C"></circle><circle cx="702.6" cy="528.6" r="1.8" fill="#A2559C"></circle></g></g><g><path fill="none" stroke-linecap="butt" stroke-linejoin="round" stroke="#fff" stroke-width="2.5" d="M70.9 516.4L108.1 517.6L145.2 519.4L182.4 520.5L219.5 521.9L256.7 522.7L293.9 523.3L331 523.8L368.2 524.1L405.3 524.2L442.5 524L479.7 524.3L516.8 524.4L554 524.7L591.1 525L628.3 525.4L665.5 525.5L702.6 525.6"></path><polyline points="70.90,516.40 108.10,517.60 145.20,519.40 182.40,520.50 219.50,521.90 256.70,522.70 293.90,523.30 331.00,523.80 368.20,524.10 405.30,524.20 442.50,524.00 479.70,524.30 516.80,524.40 554.00,524.70 591.10,525.00 628.30,525.40 665.50,525.50 702.60,525.60" stroke-linejoin="round" stroke-width="1.5" stroke="#B13507" fill="none" stroke-linecap="butt"></polyline><g><circle cx="70.9" cy="516.4" r="1.8" fill="#B13507"></circle><circle cx="108.1" cy="517.6" r="1.8" fill="#B13507"></circle><circle cx="145.2" cy="519.4" r="1.8" fill="#B13507"></circle><circle cx="182.4" cy="520.5" r="1.8" fill="#B13507"></circle><circle cx="219.5" cy="521.9" r="1.8" fill="#B13507"></circle><circle cx="256.7" cy="522.7" r="1.8" fill="#B13507"></circle><circle cx="293.9" cy="523.3" r="1.8" fill="#B13507"></circle><circle cx="331" cy="523.8" r="1.8" fill="#B13507"></circle><circle cx="368.2" cy="524.1" r="1.8" fill="#B13507"></circle><circle cx="405.3" cy="524.2" r="1.8" fill="#B13507"></circle><circle cx="442.5" cy="524" r="1.8" fill="#B13507"></circle><circle cx="479.7" cy="524.3" r="1.8" fill="#B13507"></circle><circle cx="516.8" cy="524.4" r="1.8" fill="#B13507"></circle><circle cx="554" cy="524.7" r="1.8" fill="#B13507"></circle><circle cx="591.1" cy="525" r="1.8" fill="#B13507"></circle><circle cx="628.3" cy="525.4" r="1.8" fill="#B13507"></circle><circle cx="665.5" cy="525.5" r="1.8" fill="#B13507"></circle><circle cx="702.6" cy="525.6" r="1.8" fill="#B13507"></circle></g></g><g><path fill="none" stroke-linecap="butt" stroke-linejoin="round" stroke="#fff" stroke-width="2.5" d="M70.9 528.5L108.1 528.6L145.2 528.6L182.4 528.6L219.5 528.6L256.7 528.6L293.9 528.6L331 528.6L368.2 528.6L405.3 528.5L442.5 528.5L479.7 528.5L516.8 528.5L554 528.5L591.1 528.5L628.3 528.5L665.5 528.5L702.6 528.5"></path><polyline points="70.90,528.50 108.10,528.60 145.20,528.60 182.40,528.60 219.50,528.60 256.70,528.60 293.90,528.60 331.00,528.60 368.20,528.60 405.30,528.50 442.50,528.50 479.70,528.50 516.80,528.50 554.00,528.50 591.10,528.50 628.30,528.50 665.50,528.50 702.60,528.50" stroke-linejoin="round" stroke-width="1.5" stroke="#B16214" fill="none" stroke-linecap="butt"></polyline><g><circle cx="70.9" cy="528.5" r="1.8" fill="#B16214"></circle><circle cx="108.1" cy="528.6" r="1.8" fill="#B16214"></circle><circle cx="145.2" cy="528.6" r="1.8" fill="#B16214"></circle><circle cx="182.4" cy="528.6" r="1.8" fill="#B16214"></circle><circle cx="219.5" cy="528.6" r="1.8" fill="#B16214"></circle><circle cx="256.7" cy="528.6" r="1.8" fill="#B16214"></circle><circle cx="293.9" cy="528.6" r="1.8" fill="#B16214"></circle><circle cx="331" cy="528.6" r="1.8" fill="#B16214"></circle><circle cx="368.2" cy="528.6" r="1.8" fill="#B16214"></circle><circle cx="405.3" cy="528.5" r="1.8" fill="#B16214"></circle><circle cx="442.5" cy="528.5" r="1.8" fill="#B16214"></circle><circle cx="479.7" cy="528.5" r="1.8" fill="#B16214"></circle><circle cx="516.8" cy="528.5" r="1.8" fill="#B16214"></circle><circle cx="554" cy="528.5" r="1.8" fill="#B16214"></circle><circle cx="591.1" cy="528.5" r="1.8" fill="#B16214"></circle><circle cx="628.3" cy="528.5" r="1.8" fill="#B16214"></circle><circle cx="665.5" cy="528.5" r="1.8" fill="#B16214"></circle><circle cx="702.6" cy="528.5" r="1.8" fill="#B16214"></circle></g></g><g><path fill="none" stroke-linecap="butt" stroke-linejoin="round" stroke="#fff" stroke-width="2.5" d="M70.9 529.2L108.1 529.2L145.2 529.2L182.4 529.2L219.5 529.2L256.7 529.2L293.9 529.2L331 529.2L368.2 529.2L405.3 529.2L442.5 529.2L479.7 529.2L516.8 529.2L554 529.2L591.1 529.1L628.3 529.2L665.5 529.2L702.6 529.2"></path><polyline points="70.90,529.20 108.10,529.20 145.20,529.20 182.40,529.20 219.50,529.20 256.70,529.20 293.90,529.20 331.00,529.20 368.20,529.20 405.30,529.20 442.50,529.20 479.70,529.20 516.80,529.20 554.00,529.20 591.10,529.10 628.30,529.20 665.50,529.20 702.60,529.20" stroke-linejoin="round" stroke-width="1.5" stroke="#4C6A9C" fill="none" stroke-linecap="butt"></polyline><g><circle cx="70.9" cy="529.2" r="1.8" fill="#4C6A9C"></circle><circle cx="108.1" cy="529.2" r="1.8" fill="#4C6A9C"></circle><circle cx="145.2" cy="529.2" r="1.8" fill="#4C6A9C"></circle><circle cx="182.4" cy="529.2" r="1.8" fill="#4C6A9C"></circle><circle cx="219.5" cy="529.2" r="1.8" fill="#4C6A9C"></circle><circle cx="256.7" cy="529.2" r="1.8" fill="#4C6A9C"></circle><circle cx="293.9" cy="529.2" r="1.8" fill="#4C6A9C"></circle><circle cx="331" cy="529.2" r="1.8" fill="#4C6A9C"></circle><circle cx="368.2" cy="529.2" r="1.8" fill="#4C6A9C"></circle><circle cx="405.3" cy="529.2" r="1.8" fill="#4C6A9C"></circle><circle cx="442.5" cy="529.2" r="1.8" fill="#4C6A9C"></circle><circle cx="479.7" cy="529.2" r="1.8" fill="#4C6A9C"></circle><circle cx="516.8" cy="529.2" r="1.8" fill="#4C6A9C"></circle><circle cx="554" cy="529.2" r="1.8" fill="#4C6A9C"></circle><circle cx="591.1" cy="529.1" r="1.8" fill="#4C6A9C"></circle><circle cx="628.3" cy="529.2" r="1.8" fill="#4C6A9C"></circle><circle cx="665.5" cy="529.2" r="1.8" fill="#4C6A9C"></circle><circle cx="702.6" cy="529.2" r="1.8" fill="#4C6A9C"></circle></g></g><g><path fill="none" stroke-linecap="butt" stroke-linejoin="round" stroke="#fff" stroke-width="2.5" d="M70.9 528.7L108.1 528.6L145.2 528.4L182.4 528.3L219.5 528.1L256.7 528L293.9 527.8L331 527.7L368.2 527.6L405.3 527.6L442.5 527.5L479.7 527.5L516.8 527.5L554 527.4L591.1 527.4L628.3 527.6L665.5 527.6L702.6 527.7"></path><polyline points="70.90,528.70 108.10,528.60 145.20,528.40 182.40,528.30 219.50,528.10 256.70,528.00 293.90,527.80 331.00,527.70 368.20,527.60 405.30,527.60 442.50,527.50 479.70,527.50 516.80,527.50 554.00,527.40 591.10,527.40 628.30,527.60 665.50,527.60 702.60,527.70" stroke-linejoin="round" stroke-width="1.5" stroke="#008291" fill="none" stroke-linecap="butt"></polyline><g><circle cx="70.9" cy="528.7" r="1.8" fill="#008291"></circle><circle cx="108.1" cy="528.6" r="1.8" fill="#008291"></circle><circle cx="145.2" cy="528.4" r="1.8" fill="#008291"></circle><circle cx="182.4" cy="528.3" r="1.8" fill="#008291"></circle><circle cx="219.5" cy="528.1" r="1.8" fill="#008291"></circle><circle cx="256.7" cy="528" r="1.8" fill="#008291"></circle><circle cx="293.9" cy="527.8" r="1.8" fill="#008291"></circle><circle cx="331" cy="527.7" r="1.8" fill="#008291"></circle><circle cx="368.2" cy="527.6" r="1.8" fill="#008291"></circle><circle cx="405.3" cy="527.6" r="1.8" fill="#008291"></circle><circle cx="442.5" cy="527.5" r="1.8" fill="#008291"></circle><circle cx="479.7" cy="527.5" r="1.8" fill="#008291"></circle><circle cx="516.8" cy="527.5" r="1.8" fill="#008291"></circle><circle cx="554" cy="527.4" r="1.8" fill="#008291"></circle><circle cx="591.1" cy="527.4" r="1.8" fill="#008291"></circle><circle cx="628.3" cy="527.6" r="1.8" fill="#008291"></circle><circle cx="665.5" cy="527.6" r="1.8" fill="#008291"></circle><circle cx="702.6" cy="527.7" r="1.8" fill="#008291"></circle></g></g><g><path fill="none" stroke-linecap="butt" stroke-linejoin="round" stroke="#fff" stroke-width="2.5" d="M70.9 529.1L108.1 529.1L145.2 529.1L182.4 529.1L219.5 529.1L256.7 529.1L293.9 529.1L331 529L368.2 529L405.3 529L442.5 529L479.7 529L516.8 529L554 529L591.1 529L628.3 529.1L665.5 529.1L702.6 529.1"></path><polyline points="70.90,529.10 108.10,529.10 145.20,529.10 182.40,529.10 219.50,529.10 256.70,529.10 293.90,529.10 331.00,529.00 368.20,529.00 405.30,529.00 442.50,529.00 479.70,529.00 516.80,529.00 554.00,529.00 591.10,529.00 628.30,529.10 665.50,529.10 702.60,529.10" stroke-linejoin="round" stroke-width="1.5" stroke="#996D39" fill="none" stroke-linecap="butt"></polyline><g><circle cx="70.9" cy="529.1" r="1.8" fill="#996D39"></circle><circle cx="108.1" cy="529.1" r="1.8" fill="#996D39"></circle><circle cx="145.2" cy="529.1" r="1.8" fill="#996D39"></circle><circle cx="182.4" cy="529.1" r="1.8" fill="#996D39"></circle><circle cx="219.5" cy="529.1" r="1.8" fill="#996D39"></circle><circle cx="256.7" cy="529.1" r="1.8" fill="#996D39"></circle><circle cx="293.9" cy="529.1" r="1.8" fill="#996D39"></circle><circle cx="331" cy="529" r="1.8" fill="#996D39"></circle><circle cx="368.2" cy="529" r="1.8" fill="#996D39"></circle><circle cx="405.3" cy="529" r="1.8" fill="#996D39"></circle><circle cx="442.5" cy="529" r="1.8" fill="#996D39"></circle><circle cx="479.7" cy="529" r="1.8" fill="#996D39"></circle><circle cx="516.8" cy="529" r="1.8" fill="#996D39"></circle><circle cx="554" cy="529" r="1.8" fill="#996D39"></circle><circle cx="591.1" cy="529" r="1.8" fill="#996D39"></circle><circle cx="628.3" cy="529.1" r="1.8" fill="#996D39"></circle><circle cx="665.5" cy="529.1" r="1.8" fill="#996D39"></circle><circle cx="702.6" cy="529.1" r="1.8" fill="#996D39"></circle></g></g><g><path fill="none" stroke-linecap="butt" stroke-linejoin="round" stroke="#fff" stroke-width="2.5" d="M70.9 106.8L108.1 162.5L145.2 214.8L182.4 266.5L219.5 314.4L256.7 352.8L293.9 380.5L331 401.2L368.2 419.8L405.3 432.3L442.5 439.9L479.7 445.9L516.8 452.4L554 454L591.1 452.1L628.3 458.3L665.5 467.4L702.6 472.1"></path><polyline points="70.90,106.80 108.10,162.50 145.20,214.80 182.40,266.50 219.50,314.40 256.70,352.80 293.90,380.50 331.00,401.20 368.20,419.80 405.30,432.30 442.50,439.90 479.70,445.90 516.80,452.40 554.00,454.00 591.10,452.10 628.30,458.30 665.50,467.40 702.60,472.10" stroke-linejoin="round" stroke-width="1.5" stroke="#970046" fill="none" stroke-linecap="butt"></polyline><g><circle cx="70.9" cy="106.8" r="1.8" fill="#970046"></circle><circle cx="108.1" cy="162.5" r="1.8" fill="#970046"></circle><circle cx="145.2" cy="214.8" r="1.8" fill="#970046"></circle><circle cx="182.4" cy="266.5" r="1.8" fill="#970046"></circle><circle cx="219.5" cy="314.4" r="1.8" fill="#970046"></circle><circle cx="256.7" cy="352.8" r="1.8" fill="#970046"></circle><circle cx="293.9" cy="380.5" r="1.8" fill="#970046"></circle><circle cx="331" cy="401.2" r="1.8" fill="#970046"></circle><circle cx="368.2" cy="419.8" r="1.8" fill="#970046"></circle><circle cx="405.3" cy="432.3" r="1.8" fill="#970046"></circle><circle cx="442.5" cy="439.9" r="1.8" fill="#970046"></circle><circle cx="479.7" cy="445.9" r="1.8" fill="#970046"></circle><circle cx="516.8" cy="452.4" r="1.8" fill="#970046"></circle><circle cx="554" cy="454" r="1.8" fill="#970046"></circle><circle cx="591.1" cy="452.1" r="1.8" fill="#970046"></circle><circle cx="628.3" cy="458.3" r="1.8" fill="#970046"></circle><circle cx="665.5" cy="467.4" r="1.8" fill="#970046"></circle><circle cx="702.6" cy="472.1" r="1.8" fill="#970046"></circle></g></g><g><path fill="none" stroke-linecap="butt" stroke-linejoin="round" stroke="#fff" stroke-width="2.5" d="M70.9 528.9L108.1 529L145.2 529L182.4 529L219.5 529.1L256.7 529.1L293.9 529.1L331 529.1L368.2 529.1L405.3 529.1L442.5 529.1L479.7 529.1L516.8 529.1L554 529.1L591.1 529.1L628.3 529.1L665.5 529.1L702.6 529.1"></path><polyline points="70.90,528.90 108.10,529.00 145.20,529.00 182.40,529.00 219.50,529.10 256.70,529.10 293.90,529.10 331.00,529.10 368.20,529.10 405.30,529.10 442.50,529.10 479.70,529.10 516.80,529.10 554.00,529.10 591.10,529.10 628.30,529.10 665.50,529.10 702.60,529.10" stroke-linejoin="round" stroke-width="1.5" stroke="#578145" fill="none" stroke-linecap="butt"></polyline><g><circle cx="70.9" cy="528.9" r="1.8" fill="#578145"></circle><circle cx="108.1" cy="529" r="1.8" fill="#578145"></circle><circle cx="145.2" cy="529" r="1.8" fill="#578145"></circle><circle cx="182.4" cy="529" r="1.8" fill="#578145"></circle><circle cx="219.5" cy="529.1" r="1.8" fill="#578145"></circle><circle cx="256.7" cy="529.1" r="1.8" fill="#578145"></circle><circle cx="293.9" cy="529.1" r="1.8" fill="#578145"></circle><circle cx="331" cy="529.1" r="1.8" fill="#578145"></circle><circle cx="368.2" cy="529.1" r="1.8" fill="#578145"></circle><circle cx="405.3" cy="529.1" r="1.8" fill="#578145"></circle><circle cx="442.5" cy="529.1" r="1.8" fill="#578145"></circle><circle cx="479.7" cy="529.1" r="1.8" fill="#578145"></circle><circle cx="516.8" cy="529.1" r="1.8" fill="#578145"></circle><circle cx="554" cy="529.1" r="1.8" fill="#578145"></circle><circle cx="591.1" cy="529.1" r="1.8" fill="#578145"></circle><circle cx="628.3" cy="529.1" r="1.8" fill="#578145"></circle><circle cx="665.5" cy="529.1" r="1.8" fill="#578145"></circle><circle cx="702.6" cy="529.1" r="1.8" fill="#578145"></circle></g></g><g><path fill="none" stroke-linecap="butt" stroke-linejoin="round" stroke="#fff" stroke-width="2.5" d="M70.9 529L108.1 529L145.2 529L182.4 529L219.5 529L256.7 529L293.9 529L331 529L368.2 528.9L405.3 528.9L442.5 528.9L479.7 528.9L516.8 528.9L554 528.9L591.1 528.9L628.3 528.9L665.5 528.9L702.6 528.9"></path><polyline points="70.90,529.00 108.10,529.00 145.20,529.00 182.40,529.00 219.50,529.00 256.70,529.00 293.90,529.00 331.00,529.00 368.20,528.90 405.30,528.90 442.50,528.90 479.70,528.90 516.80,528.90 554.00,528.90 591.10,528.90 628.30,528.90 665.50,528.90 702.60,528.90" stroke-linejoin="round" stroke-width="1.5" stroke="#00295B" fill="none" stroke-linecap="butt"></polyline><g><circle cx="70.9" cy="529" r="1.8" fill="#00295B"></circle><circle cx="108.1" cy="529" r="1.8" fill="#00295B"></circle><circle cx="145.2" cy="529" r="1.8" fill="#00295B"></circle><circle cx="182.4" cy="529" r="1.8" fill="#00295B"></circle><circle cx="219.5" cy="529" r="1.8" fill="#00295B"></circle><circle cx="256.7" cy="529" r="1.8" fill="#00295B"></circle><circle cx="293.9" cy="529" r="1.8" fill="#00295B"></circle><circle cx="331" cy="529" r="1.8" fill="#00295B"></circle><circle cx="368.2" cy="528.9" r="1.8" fill="#00295B"></circle><circle cx="405.3" cy="528.9" r="1.8" fill="#00295B"></circle><circle cx="442.5" cy="528.9" r="1.8" fill="#00295B"></circle><circle cx="479.7" cy="528.9" r="1.8" fill="#00295B"></circle><circle cx="516.8" cy="528.9" r="1.8" fill="#00295B"></circle><circle cx="554" cy="528.9" r="1.8" fill="#00295B"></circle><circle cx="591.1" cy="528.9" r="1.8" fill="#00295B"></circle><circle cx="628.3" cy="528.9" r="1.8" fill="#00295B"></circle><circle cx="665.5" cy="528.9" r="1.8" fill="#00295B"></circle><circle cx="702.6" cy="528.9" r="1.8" fill="#00295B"></circle></g></g><g><path fill="none" stroke-linecap="butt" stroke-linejoin="round" stroke="#fff" stroke-width="2.5" d="M70.9 304L108.1 285.7L145.2 288.1L182.4 303L219.5 326.8L256.7 347.5L293.9 368.5L331 387.1L368.2 397L405.3 407L442.5 415.6L479.7 416.9L516.8 422.2L554 427.7L591.1 430.7L628.3 432.2L665.5 446L702.6 451.3"></path><polyline points="70.90,304.00 108.10,285.70 145.20,288.10 182.40,303.00 219.50,326.80 256.70,347.50 293.90,368.50 331.00,387.10 368.20,397.00 405.30,407.00 442.50,415.60 479.70,416.90 516.80,422.20 554.00,427.70 591.10,430.70 628.30,432.20 665.50,446.00 702.60,451.30" stroke-linejoin="round" stroke-width="1.5" stroke="#883039" fill="none" stroke-linecap="butt"></polyline><g><circle cx="70.9" cy="304" r="1.8" fill="#883039"></circle><circle cx="108.1" cy="285.7" r="1.8" fill="#883039"></circle><circle cx="145.2" cy="288.1" r="1.8" fill="#883039"></circle><circle cx="182.4" cy="303" r="1.8" fill="#883039"></circle><circle cx="219.5" cy="326.8" r="1.8" fill="#883039"></circle><circle cx="256.7" cy="347.5" r="1.8" fill="#883039"></circle><circle cx="293.9" cy="368.5" r="1.8" fill="#883039"></circle><circle cx="331" cy="387.1" r="1.8" fill="#883039"></circle><circle cx="368.2" cy="397" r="1.8" fill="#883039"></circle><circle cx="405.3" cy="407" r="1.8" fill="#883039"></circle><circle cx="442.5" cy="415.6" r="1.8" fill="#883039"></circle><circle cx="479.7" cy="416.9" r="1.8" fill="#883039"></circle><circle cx="516.8" cy="422.2" r="1.8" fill="#883039"></circle><circle cx="554" cy="427.7" r="1.8" fill="#883039"></circle><circle cx="591.1" cy="430.7" r="1.8" fill="#883039"></circle><circle cx="628.3" cy="432.2" r="1.8" fill="#883039"></circle><circle cx="665.5" cy="446" r="1.8" fill="#883039"></circle><circle cx="702.6" cy="451.3" r="1.8" fill="#883039"></circle></g></g></g></g></g><g class="SourcesFooter" style="fill:#5b5b5b"><text x="16.0" y="581.0" style="font-size:13px;line-height:1.2"><tspan x="16" y="581.0"><tspan style="font-weight:700">Data source:</tspan> IHME, Global Burden of Disease (2019)</tspan></text><text font-size="13.00" x="617.5" y="581.0"><tspan x="617.55" y="581.01"><a target="_blank" style="fill: #5b5b5b; text-decoration: underline;" href="https://ourworldindata.org/hygiene">OurWorldInData.org/hygiene</a> | <a target="_blank" style="fill: #5b5b5b; text-decoration: underline;" href="https://creativecommons.org/licenses/by/4.0/">CC BY</a></tspan></text></g><line x1="16" y1="600" x2="834" y2="600" stroke="#e7e7e7"></line><g transform="translate(15, 616)"><text x="0.0" y="11.6" style="font-size:12px;fill:#5b5b5b;line-height:1.2"><tspan x="0" y="11.6"><tspan style="font-weight:700">1.</tspan> <tspan style="font-weight:700">Unsafe sanitation</tspan>: Unsafe sanitation includes practices like open defecation and improper treatment of household wastewater. It is linked to the</tspan><tspan x="0" y="26.0">spread of diseases like cholera, dysentery, typhoid, intestinal worms, and polio. Unsafe sanitation exacerbates impaired growth and development in</tspan><tspan x="0" y="40.4">children and contributes to the problem of antimicrobial resistance.</tspan></text></g></svg>